<?xml version="1.0" encoding="utf-8"?>
<!-- Generator: Adobe Illustrator 22.0.0, SVG Export Plug-In . SVG Version: 6.00 Build 0)  -->
<svg version="1.1" id="Слой_1" xmlns="http://www.w3.org/2000/svg" xmlns:xlink="http://www.w3.org/1999/xlink" x="0px" y="0px"
	 viewBox="0 0 100 100" style="enable-background:new 0 0 100 100;" xml:space="preserve">
<path d="M92.7,10H7.3C4.4,10,2,12.4,2,15.3v61.4C2,79.6,4.4,82,7.3,82H43v3.1c0,1-0.8,1.9-1.9,1.9H22.4C20,87,18,89,18,91.4V96h64
	v-4.6c0-2.4-2-4.4-4.4-4.4H58.9c-1,0-1.9-0.8-1.9-1.9V82h35.7c2.9,0,5.3-2.4,5.3-5.3V15.3C98,12.4,95.6,10,92.7,10z M58.9,91h18.8
	c0.2,0,0.4,0.2,0.4,0.4V92H22v-0.6c0-0.2,0.2-0.4,0.4-0.4h18.8c3.2,0,5.9-2.6,5.9-5.9V82h6v3.1C53,88.4,55.6,91,58.9,91z M94,76.7
	c0,0.7-0.6,1.3-1.3,1.3H57H43H7.3C6.6,78,6,77.4,6,76.7V15.3C6,14.6,6.6,14,7.3,14h85.4c0.7,0,1.3,0.6,1.3,1.3V76.7z"/>
</svg>
