<?xml version="1.0" encoding="utf-8"?>
<!-- Generator: Adobe Illustrator 23.0.2, SVG Export Plug-In . SVG Version: 6.00 Build 0)  -->
<svg version="1.1" id="Слой_1" xmlns="http://www.w3.org/2000/svg" xmlns:xlink="http://www.w3.org/1999/xlink" x="0px" y="0px"
	 viewBox="0 0 128 128" style="enable-background:new 0 0 128 128;" xml:space="preserve">
<style type="text/css">
	.st0{fill:#000105;}
</style>
<path class="st0" d="M105.4,5.5H22.6c-9.4,0-17.1,7.7-17.1,17.1v82.9c0,9.4,7.7,17.1,17.1,17.1h82.9c9.4,0,17.1-7.7,17.1-17.1V22.6
	C122.5,13.2,114.8,5.5,105.4,5.5z M117.5,105.4c0,6.7-5.4,12.1-12.1,12.1H22.6c-6.7,0-12.1-5.4-12.1-12.1V22.6
	c0-6.7,5.4-12.1,12.1-12.1h82.9c6.7,0,12.1,5.4,12.1,12.1V105.4z"/>
<circle class="st0" cx="64" cy="64" r="8"/>
<circle class="st0" cx="36" cy="64" r="8"/>
<circle class="st0" cx="92" cy="64" r="8"/>
</svg>
