<?xml version="1.0" encoding="utf-8"?>
<!-- Generator: Adobe Illustrator 22.0.0, SVG Export Plug-In . SVG Version: 6.00 Build 0)  -->
<svg version="1.1" id="Слой_1" xmlns="http://www.w3.org/2000/svg" xmlns:xlink="http://www.w3.org/1999/xlink" x="0px" y="0px"
	 viewBox="0 0 100 100" style="enable-background:new 0 0 100 100;" xml:space="preserve">
<path d="M50,2.7c-1.8,0-3.7,1.1-4.3,3.2l-8.6,26.3c-0.6,1.9-2.4,3.2-4.3,3.2H5.1c-4.4,0-6.3,5.7-2.7,8.3l22.4,16.3
	c1.6,1.2,2.3,3.2,1.7,5.1l-8.6,26.3c-1,3.2,1.5,6,4.4,6c0.9,0,1.8-0.3,2.7-0.9l22.4-16.3c0.8-0.6,1.7-0.9,2.7-0.9s1.9,0.3,2.7,0.9
	l22.4,16.3c0.9,0.6,1.8,0.9,2.7,0.9c2.9,0,5.4-2.8,4.4-6L73.5,65c-0.6-1.9,0.1-3.9,1.7-5.1l22.4-16.3c3.6-2.6,1.7-8.3-2.7-8.3H67.2
	c-2,0-3.7-1.3-4.3-3.2L54.3,5.8C53.7,3.7,51.8,2.7,50,2.7L50,2.7z"/>
</svg>
