<?xml version="1.0" encoding="utf-8"?>
<!-- Generator: Adobe Illustrator 22.0.0, SVG Export Plug-In . SVG Version: 6.00 Build 0)  -->
<svg version="1.1" id="Слой_1" xmlns="http://www.w3.org/2000/svg" xmlns:xlink="http://www.w3.org/1999/xlink" x="0px" y="0px"
	 viewBox="0 0 100 100" style="enable-background:new 0 0 100 100;" xml:space="preserve">
<path d="M50,6.7c0.4,0,0.5,0.3,0.5,0.4l8.6,26.3c1.1,3.5,4.4,5.9,8.1,5.9h27.7c0.1,0,0.4,0,0.5,0.4c0.1,0.4-0.1,0.5-0.2,0.6
	L72.9,56.6c-3,2.2-4.3,6-3.1,9.6l8.6,26.3c0.1,0.2,0,0.4,0,0.5c-0.1,0.2-0.3,0.3-0.5,0.3c0,0-0.1,0-0.3-0.1L55,76.9
	c-1.5-1.1-3.2-1.6-5-1.6c-1.8,0-3.6,0.6-5,1.6L22.6,93.2c-0.2,0.1-0.3,0.1-0.3,0.1c-0.2,0-0.4-0.1-0.5-0.3c-0.1-0.1-0.1-0.2,0-0.5
	l8.6-26.3c1.1-3.5-0.1-7.4-3.1-9.6L4.7,40.4c-0.1-0.1-0.3-0.2-0.2-0.6c0.1-0.4,0.4-0.4,0.5-0.4h27.7c3.7,0,7-2.4,8.1-5.9l8.6-26.3
	C49.5,7,49.6,6.7,50,6.7 M50,2.7c-1.8,0-3.7,1.1-4.3,3.2l-8.6,26.3c-0.6,1.9-2.4,3.2-4.3,3.2H5.1c-4.4,0-6.3,5.7-2.7,8.3l22.4,16.3
	c1.6,1.2,2.3,3.2,1.7,5.1l-8.6,26.3c-1,3.2,1.5,6,4.4,6c0.9,0,1.8-0.3,2.7-0.9l22.4-16.3c0.8-0.6,1.7-0.9,2.7-0.9s1.9,0.3,2.7,0.9
	l22.4,16.3c0.9,0.6,1.8,0.9,2.7,0.9c2.9,0,5.4-2.8,4.4-6L73.5,65c-0.6-1.9,0.1-3.9,1.7-5.1l22.4-16.3c3.6-2.6,1.7-8.3-2.7-8.3H67.2
	c-2,0-3.7-1.3-4.3-3.2L54.3,5.8C53.7,3.7,51.8,2.7,50,2.7L50,2.7z"/>
</svg>
