<?xml version="1.0" encoding="utf-8"?>
<!-- Generator: Adobe Illustrator 22.0.0, SVG Export Plug-In . SVG Version: 6.00 Build 0)  -->
<svg version="1.1" id="Слой_2" xmlns="http://www.w3.org/2000/svg" xmlns:xlink="http://www.w3.org/1999/xlink" x="0px" y="0px"
	 viewBox="0 0 100 100" style="enable-background:new 0 0 100 100;" xml:space="preserve">
<path d="M99.5,57.3c0.3-2.4,0.5-4.8,0.5-7.3s-0.2-4.9-0.5-7.3l-12.3-2c-0.9-3.8-2.4-7.3-4.4-10.6l7.3-10.1c-0.7-0.9-1.4-1.8-2.2-2.7
	L36.5,85.9c1.4,0.5,2.8,1,4.2,1.3l2,12.3c2.4,0.3,4.8,0.5,7.3,0.5s4.9-0.2,7.3-0.5l2-12.3c3.8-0.9,7.3-2.4,10.6-4.4l10.1,7.3
	c3.9-2.9,7.4-6.4,10.3-10.3l-7.3-10.1c2-3.2,3.4-6.8,4.4-10.6L99.5,57.3z"/>
<path d="M82.6,4.6L62.5,31.4L54.3,6.1C53.7,4,51.8,3,50,3s-3.7,1.1-4.3,3.2l-8.5,26.1c-0.6,1.9-2.4,3.2-4.3,3.2H5.4
	c-4.4,0-6.3,5.7-2.7,8.2L25,59.9c1.6,1.2,2.3,3.2,1.7,5.1L18.5,90l-3,4l4.4,3.3L87,7.9L82.6,4.6z"/>
</svg>
