<?xml version="1.0" encoding="utf-8"?>
<!-- Generator: Adobe Illustrator 23.0.2, SVG Export Plug-In . SVG Version: 6.00 Build 0)  -->
<svg version="1.1" id="Слой_1" xmlns="http://www.w3.org/2000/svg" xmlns:xlink="http://www.w3.org/1999/xlink" x="0px" y="0px"
	 viewBox="0 0 128 128" style="enable-background:new 0 0 128 128;" xml:space="preserve">
<style type="text/css">
	.st0{fill:#000105;}
</style>
<path class="st0" d="M8.2,111.9c-1.6-1.9-2.2-4.4-1.8-6.8l4.1-23V21.2c0-1.5,1.2-2.7,2.7-2.7h41.7c1.5,0,2.7,1.2,2.7,2.7v9.3H106
	c1.5,0,2.7,1.2,2.7,2.7V39h5v-5.8c0-4.2-3.5-7.7-7.7-7.7H80.3H62.6v-4.3c0-4.2-3.5-7.7-7.7-7.7H13.2c-4.2,0-7.7,3.5-7.7,7.7v85.6
	c0,3.7,2.7,6.8,6.1,7.5C10.3,113.8,9.1,113,8.2,111.9z"/>
<path class="st0" d="M122.1,42c-1.6-1.9-3.9-3-6.4-3h-2.1h-5H25.2c-4,0-7.5,2.9-8.2,6.8l-6.5,36.3l-4.1,23c-0.4,2.4,0.2,4.9,1.8,6.8
	c0.9,1.1,2.1,1.9,3.4,2.4c0.9,0.3,1.9,0.5,2.9,0.5h90.6c1.6,0,3.2-0.5,4.5-1.3c1.9-1.2,3.3-3.2,3.7-5.5l0.4-2l10.2-57.2
	C124.4,46.3,123.7,43.9,122.1,42z M119,47.9l-5.3,29.7l-5,28l-0.3,1.6c-0.2,0.9-0.7,1.7-1.4,2.1c-0.5,0.4-1.2,0.6-1.8,0.6H14.6
	c-0.5,0-1.1-0.1-1.5-0.4c-0.4-0.2-0.7-0.5-1-0.8c-0.6-0.7-0.9-1.7-0.7-2.7l10.6-59.3c0.3-1.6,1.6-2.7,3.2-2.7h83.5h5h2.1
	c1,0,1.9,0.4,2.5,1.2C118.9,45.9,119.2,46.9,119,47.9z"/>
</svg>
