<?xml version="1.0" encoding="utf-8"?>
<!-- Generator: Adobe Illustrator 23.0.2, SVG Export Plug-In . SVG Version: 6.00 Build 0)  -->
<svg version="1.1" id="Слой_1" xmlns="http://www.w3.org/2000/svg" xmlns:xlink="http://www.w3.org/1999/xlink" x="0px" y="0px"
	 viewBox="0 0 128 128" style="enable-background:new 0 0 128 128;" xml:space="preserve">
<style type="text/css">
	.st0{fill:#000105;}
</style>
<path class="st0" d="M114.8,114.5H13.2c-4.2,0-7.7-3.5-7.7-7.7V21.2c0-4.2,3.5-7.7,7.7-7.7h41.6c4.2,0,7.7,3.5,7.7,7.7v4.3h52.3
	c4.2,0,7.7,3.5,7.7,7.7v73.6C122.5,111,119,114.5,114.8,114.5z M13.2,18.5c-1.5,0-2.7,1.2-2.7,2.7v85.6c0,1.5,1.2,2.7,2.7,2.7h101.6
	c1.5,0,2.7-1.2,2.7-2.7V33.2c0-1.5-1.2-2.7-2.7-2.7H57.5v-9.3c0-1.5-1.2-2.7-2.7-2.7H13.2z"/>
<polygon points="56,96 48,96 72,44 80,44 "/>
</svg>
