<?xml version="1.0" encoding="utf-8"?>
<!-- Generator: Adobe Illustrator 23.0.2, SVG Export Plug-In . SVG Version: 6.00 Build 0)  -->
<svg version="1.1" id="Слой_1" xmlns="http://www.w3.org/2000/svg" xmlns:xlink="http://www.w3.org/1999/xlink" x="0px" y="0px"
	 viewBox="0 0 128 128" style="enable-background:new 0 0 128 128;" xml:space="preserve">
<path d="M64,73.9c-3.6,0-6.5-3-6.5-6.7V10.1c0-3.7,2.9-6.7,6.5-6.7s6.5,3,6.5,6.7v57.1C70.5,70.9,67.6,73.9,64,73.9z"/>
<path d="M64,121c-31.4,0-57-25.6-57-57c0-21.3,11.7-40.6,30.5-50.5c2.9-1.5,6.6-0.4,8.1,2.5c1.5,2.9,0.4,6.6-2.5,8.1
	C28.3,32,19,47.3,19,64.1c0,24.8,20.2,45,45,45c24.8,0,45-20.2,45-45c0-16.8-9.3-32.1-24.2-39.9c-2.9-1.5-4.1-5.2-2.5-8.1
	c1.5-2.9,5.2-4.1,8.1-2.5c18.9,9.9,30.6,29.2,30.6,50.5C121,95.5,95.4,121,64,121z"/>
</svg>
