<?xml version="1.0" encoding="utf-8"?>
<!-- Generator: Adobe Illustrator 23.0.2, SVG Export Plug-In . SVG Version: 6.00 Build 0)  -->
<svg version="1.1" id="Слой_1" xmlns="http://www.w3.org/2000/svg" xmlns:xlink="http://www.w3.org/1999/xlink" x="0px" y="0px"
	 viewBox="0 0 128 128" style="enable-background:new 0 0 128 128;" xml:space="preserve">
<style type="text/css">
	.st0{fill:#000105;}
	.st1{fill:#000307;}
</style>
<path class="st0" d="M98.1,13.5h-7.6H88v5h2.5h7.6c1.8,0,3.4,1.5,3.4,3.4v92.3c0,1.8-1.5,3.4-3.4,3.4H29.9c-1.8,0-3.4-1.5-3.4-3.4
	V21.9c0-1.8,1.5-3.4,3.4-3.4h7.6H40v-5h-2.5h-7.6c-4.6,0-8.4,3.7-8.4,8.4v92.3c0,4.6,3.7,8.4,8.4,8.4h68.3c4.6,0,8.4-3.7,8.4-8.4
	V21.9C106.5,17.2,102.8,13.5,98.1,13.5z"/>
<path class="st0" d="M79.6,20H48.6v-7.1c0-5.5,3.7-9.9,8.3-9.9h14.4c4.6,0,8.3,4.4,8.3,9.9V20z M52.8,15h22.7v-2.1
	c0-2.7-1.8-4.9-4.1-4.9H56.9c-2.3,0-4.1,2.2-4.1,4.9V15z"/>
<rect x="40" y="35.5" class="st1" width="48" height="5"/>
<rect x="40" y="51.5" class="st1" width="48" height="5"/>
<rect x="40" y="67.5" class="st1" width="48" height="5"/>
<rect x="40" y="83.5" class="st1" width="48" height="5"/>
</svg>
