<?xml version="1.0" encoding="utf-8"?>
<!-- Generator: Adobe Illustrator 22.0.0, SVG Export Plug-In . SVG Version: 6.00 Build 0)  -->
<svg version="1.1" id="Слой_3__x28_копия_x29_"
	 xmlns="http://www.w3.org/2000/svg" xmlns:xlink="http://www.w3.org/1999/xlink" x="0px" y="0px" viewBox="0 0 100 100"
	 style="enable-background:new 0 0 100 100;" xml:space="preserve">
<style type="text/css">
	.st0{fill:#FFFFFF;}
	.st1{fill:#FFFFFF;}
</style>
<g>
	<polygon class="st0" points="64.3,35.3 69.9,38.5 69.9,45 84.6,45 84.6,30 71.7,22.5 	"/>
</g>
<g>
	<polygon class="st0" points="44.4,30.3 50,27 55.6,30.3 63,17.5 50,10 37,17.5 	"/>
</g>
<g>
	<polygon class="st0" points="30.1,45 30.1,38.5 35.7,35.3 28.3,22.5 15.4,30 15.4,45 	"/>
</g>
<g>
	<polygon class="st0" points="35.7,64.8 30.1,61.5 30.1,55 15.4,55 15.4,70 28.3,77.5 	"/>
</g>
<g>
	<polygon class="st0" points="55.6,69.8 50,73 44.4,69.8 37,82.5 50,90 63,82.5 	"/>
</g>
<path class="st1" d="M38.2,56.5c0-4.3,3.2-6.8,7.8-6.8c4.6,0,7.8,2.5,7.8,6.8c0,4.3-3.2,6.9-7.8,6.9C41.4,63.4,38.2,60.8,38.2,56.5z
	 M49.8,56.5c0-2.6-1.5-4.2-3.8-4.2c-2.3,0-3.8,1.6-3.8,4.2c0,2.7,1.5,4.4,3.8,4.4C48.3,60.8,49.8,59.2,49.8,56.5z"/>
<path class="st1" d="M57,49.9h6.3c3.7,0,6.7,1.1,6.7,4.3c0,3.1-3.1,4.5-6.7,4.5h-2.4v4.5H57V49.9z M63,56.3c2.1,0,3.2-0.7,3.2-2.1
	S65,52.3,63,52.3h-2.1v4H63z"/>
<path class="st1" d="M75.1,56.4l-4.5-6.4H75l1.5,2.5c0.4,0.6,0.8,1.3,1.3,2.1h0.1c0.4-0.8,0.7-1.5,1.1-2.1l1.4-2.5h4.1L80,56.5
	l4.7,6.7h-4.3l-1.7-2.7c-0.4-0.7-0.8-1.4-1.3-2.2h-0.1c-0.4,0.8-0.8,1.5-1.2,2.2l-1.6,2.7h-4.1L75.1,56.4z"/>
</svg>
