<?xml version="1.0" encoding="utf-8"?>
<!-- Generator: Adobe Illustrator 23.0.2, SVG Export Plug-In . SVG Version: 6.00 Build 0)  -->
<svg version="1.1" id="Слой_1" xmlns="http://www.w3.org/2000/svg" xmlns:xlink="http://www.w3.org/1999/xlink" x="0px" y="0px"
	 viewBox="0 0 128 128" style="enable-background:new 0 0 128 128;" xml:space="preserve">
<path d="M64.1,12.4V3.9L52.3,17.1l-5.2,5.8l5.6,6.3l11.4,12.7v-2.7v-9c18.7,0,33.8,15.2,33.8,33.8h-0.1c0,0,0,0,0,0
	c0,9.2-3.7,18.3-11,25l12,13.1C109.9,91.9,115.6,78,115.6,64h0.1C115.6,35.5,92.6,12.4,64.1,12.4z"/>
<path d="M64,86.2v2.7v9c-18.7,0-33.8-15.2-33.8-33.8h0.1c0,0,0,0,0,0c0-9.2,3.7-18.3,11-25l-12-13.1C18.1,36.1,12.5,50,12.5,64h-0.1
	c0,28.5,23.1,51.6,51.6,51.6v8.6l11.8-13.2l5.2-5.8l-5.6-6.3L64,86.2z"/>
</svg>
