<?xml version="1.0" encoding="utf-8"?>
<!-- Generator: Adobe Illustrator 23.0.2, SVG Export Plug-In . SVG Version: 6.00 Build 0)  -->
<svg version="1.1" id="Слой_1" xmlns="http://www.w3.org/2000/svg" xmlns:xlink="http://www.w3.org/1999/xlink" x="0px" y="0px"
	 viewBox="0 0 128 128" style="enable-background:new 0 0 128 128;" xml:space="preserve">
<path d="M73.8,7.4C47.9,7.4,27,28.4,27,54.2c0,10,3.2,19.3,8.5,26.9L7.4,109.2l11.3,11.3l28.1-28.1c7.6,5.4,16.9,8.5,26.9,8.5
	c25.8,0,46.8-20.9,46.8-46.8C120.6,28.4,99.6,7.4,73.8,7.4z M73.8,86.4c-6,0-11.6-1.6-16.4-4.5c-4.7-2.8-8.6-6.7-11.3-11.3
	c-2.8-4.8-4.5-10.4-4.5-16.4C41.6,36.4,56,22,73.8,22c10.6,0,20.1,5.2,25.9,13.1c0.6,0.9,1.2,1.8,1.8,2.7c2.8,4.8,4.5,10.4,4.5,16.4
	C106,72,91.6,86.4,73.8,86.4z"/>
</svg>
