<?xml version="1.0" encoding="utf-8"?>
<!-- Generator: Adobe Illustrator 22.0.0, SVG Export Plug-In . SVG Version: 6.00 Build 0)  -->
<svg version="1.1" id="Слой_2" xmlns="http://www.w3.org/2000/svg" xmlns:xlink="http://www.w3.org/1999/xlink" x="0px" y="0px"
	 viewBox="0 0 100 100" style="enable-background:new 0 0 100 100;" xml:space="preserve">
<path d="M99.5,57.3c0.3-2.4,0.5-4.8,0.5-7.3s-0.2-4.9-0.5-7.3l-12.3-2c-0.9-3.8-2.4-7.3-4.4-10.6l7.3-10.1
	c-2.9-3.9-6.4-7.4-10.3-10.3l-10.1,7.3c-3.2-2-6.8-3.4-10.6-4.4l-2-12.3C54.9,0.2,52.5,0,50,0s-4.9,0.2-7.3,0.5l-2,12.3
	c-3.8,0.9-7.3,2.4-10.6,4.4L20.1,9.9c-3.9,2.9-7.4,6.4-10.3,10.3l7.3,10.1c-2,3.2-3.4,6.8-4.4,10.6l-12.3,2C0.2,45.1,0,47.5,0,50
	s0.2,4.9,0.5,7.3l12.3,2c0.9,3.8,2.4,7.3,4.4,10.6L9.9,79.9c2.9,3.9,6.4,7.4,10.3,10.3l10.1-7.3c3.2,2,6.8,3.4,10.6,4.4l2,12.3
	c2.4,0.3,4.8,0.5,7.3,0.5s4.9-0.2,7.3-0.5l2-12.3c3.8-0.9,7.3-2.4,10.6-4.4l10.1,7.3c3.9-2.9,7.4-6.4,10.3-10.3l-7.3-10.1
	c2-3.2,3.4-6.8,4.4-10.6L99.5,57.3z M50,71.3c-11.8,0-21.3-9.6-21.3-21.3c0-11.8,9.6-21.3,21.3-21.3S71.3,38.2,71.3,50
	C71.3,61.8,61.8,71.3,50,71.3z"/>
</svg>
