<?xml version="1.0" encoding="utf-8"?>
<!-- Generator: Adobe Illustrator 23.0.2, SVG Export Plug-In . SVG Version: 6.00 Build 0)  -->
<svg version="1.1" id="Слой_1" xmlns="http://www.w3.org/2000/svg" xmlns:xlink="http://www.w3.org/1999/xlink" x="0px" y="0px"
	 viewBox="0 0 208 128" style="enable-background:new 0 0 208 128;" xml:space="preserve">
<path d="M9.3,64c0,22.3,18.2,40.5,40.5,40.5h54.3c10.1,9.6,23.7,15.5,38.7,15.5c30.9,0,56-25.1,56-56c0-30.9-25.1-56-56-56
	c-15,0-28.6,5.9-38.7,15.5H49.8C27.4,23.5,9.3,41.7,9.3,64z M18.3,64c0-17.4,14.1-31.5,31.5-31.5h46.7c-6.1,9-9.7,19.8-9.7,31.5
	s3.6,22.5,9.7,31.5H49.8C32.4,95.5,18.3,81.4,18.3,64z"/>
</svg>
