<?xml version="1.0" encoding="utf-8"?>
<!-- Generator: Adobe Illustrator 23.0.2, SVG Export Plug-In . SVG Version: 6.00 Build 0)  -->
<svg version="1.1" id="Слой_1" xmlns="http://www.w3.org/2000/svg" xmlns:xlink="http://www.w3.org/1999/xlink" x="0px" y="0px"
	 viewBox="0 0 208 128" style="enable-background:new 0 0 208 128;" xml:space="preserve">
<path d="M158.3,23.5h-54.3C93.9,13.9,80.2,8,65.3,8c-30.9,0-56,25.1-56,56c0,30.9,25.1,56,56,56c15,0,28.6-5.9,38.7-15.5h54.3
	c22.3,0,40.5-18.2,40.5-40.5C198.8,41.7,180.6,23.5,158.3,23.5z M158.3,95.5h-46.7c6.1-9,9.7-19.8,9.7-31.5s-3.6-22.5-9.7-31.5h46.7
	c17.4,0,31.5,14.1,31.5,31.5S175.6,95.5,158.3,95.5z"/>
</svg>
