<?xml version="1.0" encoding="utf-8"?>
<!-- Generator: Adobe Illustrator 22.0.0, SVG Export Plug-In . SVG Version: 6.00 Build 0)  -->
<svg version="1.1" id="Слой_1" xmlns="http://www.w3.org/2000/svg" xmlns:xlink="http://www.w3.org/1999/xlink" x="0px" y="0px"
	 viewBox="0 0 100 100" style="enable-background:new 0 0 100 100;" xml:space="preserve">
<g>
	<g>
		<path d="M7.2,28.8c1.2,1.6,3.1,5,5.2,5.6c2.2,0.6,4.4-1.8,6.5-2.3c1.1-0.3,1.5-1.7,0.7-2.5c-0.5-0.6-0.9-1.2-1.4-1.7
			c-0.2,0.7-0.4,1.4-0.5,2.1c1.5-0.9,2.8-0.7,4.3-1.1c2.5-0.6,4.9-1.9,7.2-3c2.4-1.2,2.6-1.7,4.1-3.8c2.8-3.9,7-4.8,11.4-5.6
			c1.5-0.3,1.3-2.5,0-2.9c-3.9-1.3-8.3-2.9-12.5-2.8c-3.6,0.1-6.9,1.6-10.1,2.9c-2.3,0.9-4.3,1.6-6,3.5c-2,2.1,1.7,2.2-3.1,4.3
			c-1.1,0.5-1.6,0.9-2.4,0.2C9.7,21.1,8.5,21,8,21.9c-1.3,2.7-1.9,3-0.7,5.8c0.8,1.8,3.4,0.2,2.6-1.5c-0.6-1.2,0.1-1.5,0.7-2.8
			c-0.8,0.1-1.6,0.2-2.4,0.3c3.3,2.7,7.3,0.4,9.7-2.8c1.5-2.1,1.5-3,4.1-4.1c1.9-0.8,3.9-1.7,5.9-2.3c5.5-1.6,10.6,0.1,15.9,1.8
			c0-1,0-1.9,0-2.9c-3.2,0.6-6.4,1.2-9.2,3c-2.4,1.5-2.9,3.3-4.6,5.2c-1.9,2-6.2,3.6-8.7,3.8c-2.5,0.2-2.7,0.4-5.2,1.9
			c-0.7,0.4-1,1.4-0.5,2.1c0.8,1.3,0.8,1.3,1.9,2.4c0.2-0.8,0.4-1.7,0.7-2.5c-1.2,0.3-3.2,1.6-4.2,1.7c-0.6,0.7-1.1,0.6-1.5-0.4
			c-0.9-1-1.8-2.1-2.6-3.2C8.6,25.8,6,27.3,7.2,28.8L7.2,28.8z"/>
	</g>
</g>
<g>
	<g>
		<path d="M26.1,27.7c2.8,1.7,5.8,3.4,8.5,5.3c3.1,2.2,5.5,5.1,8.2,7.7c4.4,4.3,9.4,8.1,14.4,11.7c5.8,4.2,11.6,8.2,17.2,12.6
			c3.4,2.7,5,1.8,8-1.3c0.6-0.6,0.6-1.6,0-2.1c-5.8-5.5-13.6-9.3-20.4-13.4c-2.3-1.4-11.2-8-13.8-4.5c-0.8,1.1-0.4,2.3,0.3,3.4
			c2.2,3.4,6.7,5.7,9.4,8.7c2.1,2.3,3.2,4.6,5.9,6.2c4.2,2.4,8.8,3.1,12.4,6.6c0.9,0.8,2.1,0.4,2.5-0.7c0.2-0.5,0.4-1,0.6-1.5
			c0.7-1.8-2.2-2.6-2.9-0.8c-0.2,0.5-0.4,1-0.6,1.5c0.8-0.2,1.7-0.4,2.5-0.7c-4.2-4-9.7-4.5-14.1-7.9c-4.3-3.3-7.1-8.6-11.8-11.8
			c-0.6-0.4-2.9-1.6-1.2-0.7c1.6,0.8,3.3,1.4,4.9,2.2c2.5,1.3,4.8,2.8,7.2,4.3C69,56,75.4,59.1,80.2,63.7c0-0.7,0-1.4,0-2.1
			c-2.5,2.6-4.6,0.6-6.8-1.1c-2.3-1.8-4.6-3.5-7-5.2c-4.8-3.5-9.7-6.8-14.4-10.5c-4.3-3.4-8-7.4-12-11.2c-3.7-3.5-8.1-5.9-12.4-8.5
			C26,24.1,24.5,26.7,26.1,27.7L26.1,27.7z"/>
	</g>
</g>
<g>
	<g>
		<path d="M78.8,61.3c-1.1,0.3-2.3,0.6-3.4,0.9c0.6,0.7,1.1,1.5,1.7,2.2c0.4-0.4,0.9-0.9,1.3-1.3c1.2-0.9-0.1-3-1.5-2.5
			c-0.6,0.2-1.1,0.4-1.7,0.6c0.6,0.7,1.1,1.5,1.7,2.2c0.3-0.4,0.6-0.7,0.9-1.1c0.8-0.9,0.4-2.1-0.7-2.5c-1.4-0.5-2.5-0.5-3.9-0.1
			c0.6,0.5,1.3,1,1.9,1.4c0-0.2,0.1-0.4,0.1-0.6c0.6-1-0.2-2.3-1.3-2.3c-1.2,0-1.3,0-2.4,0.4c0.6,0.6,1.2,1.2,1.8,1.8
			c0.3-0.8,0.7-1,0.5-1.9c-0.1-0.6-0.4-1.3-1.1-1.4c-0.8-0.2-1.3-0.1-2.1-0.1c0.5,0.4,1,0.7,1.4,1.1c-0.4-2.6-4.6-3.6-6.5-5
			c-0.9-0.7-1.4-1.2-2.4-1.7c-1.9-1-2.8-2.1-4.4-3.4c-0.9-0.8-2.7-0.3-2.6,1.1c0.1,1.1,0.3,1.3,1,2.1c1.6,1.9,3.4,2.8,4.7,5.1
			c0.7,1.3,1.1,2.5,2.4,3.4c1.9,1.3,4.4,1.7,6.4,2.9c0.4-0.9,0.8-1.8,1.2-2.7c-3.2-1-6.6-1.7-8.7-4.5c-1.1-1.5-2-2.8-3.7-3.7
			c-1.7-1-3.2,1.6-1.5,2.6c2.4,1.4,3.1,4.2,5.4,5.7c2.2,1.5,5.2,2,7.7,2.8c1.7,0.5,2.6-1.9,1.2-2.7c-1.4-0.9-2.9-1.3-4.3-2.1
			c-2-1.1-2.8-2.4-4-4.2c-0.5-0.7-1.1-1.6-1.7-2.2c-0.2-0.2-2.9-2.2-2.9-2.3c-0.9,0.4-1.7,0.7-2.6,1.1c1,0.8,1.2,2,2.2,2.7
			c0.8,0.6,1.7,0.6,2.5,1.1c2.1,1.1,1.6,1.5,2.8,2.3c0.8,0.5,4.9,1.8,5,2.7c0.1,0.6,0.8,1.1,1.4,1.1c0.4,0,0.9,0,1.3,0
			c-0.4-0.5-0.7-1-1.1-1.4c0,0.1-0.4,1.1-0.4,1.1c-0.4,1.1,0.8,2.2,1.8,1.8c0.6-0.1,1.1-0.2,1.7-0.3c-0.4-0.8-0.9-1.5-1.3-2.3
			c-0.5,0.8-0.6,1.1-0.5,2.1c0.1,0.9,0.9,1.8,1.9,1.4c0.8,0,1.5,0.1,2.3,0.1c-0.2-0.8-0.4-1.7-0.7-2.5c-0.6,0.6-0.9,1-1.4,1.7
			c-0.7,1.1,0.5,2.6,1.7,2.2c0.6-0.2,1.1-0.4,1.7-0.6c-0.5-0.8-1-1.7-1.5-2.5c-1,0.8-1,0.9-1.8,1.9c-0.8,1.1,0.5,2.5,1.7,2.2
			c1.1-0.3,2.3-0.6,3.4-0.9C81.5,63.7,80.7,60.8,78.8,61.3L78.8,61.3z"/>
	</g>
</g>
<g>
	<g>
		<path d="M9.4,66.6c1.2-4.5,5.3-2.4,8.2-3c1.2-0.3,2.1-0.9,3.2-1.6c3.8-2.5,7.3-5.4,11-7.9c7.9-5.3,16.2-11.7,25.2-15
			c1.1-0.4,1.4-1.6,0.7-2.5c-4.4-5.3,6.5-4.7,7.8-4c-0.1-0.8-0.2-1.6-0.3-2.4c-2.1,2.4-6.9,6.5-2,8.8c2.5,1.2,4.4-0.7,6.7-0.8
			c1.9-1.4,2.8-0.5,2.9,2.9c-0.8,0.3-1.6,0.7-2.4,1c-2.8,0.8-4.6,0.1-7.4-0.2c-6.5-0.7-13.2,4.7-18.4,8c-7.4,4.7-14.6,9.7-22.6,13.4
			c-0.6,0.3-0.9,1.1-0.7,1.7c1,3.5,2.4,6.4-1.7,8c-1.2,0.4-6.9,2.1-4.8-0.5c1-1.2,3-0.8,3.3-2.8c0.8-5.5-9.1-1.9-10-3.7
			c-0.9-1.7-3.5-0.2-2.6,1.5c0.7,1.3,1.5,1.9,3,2.1c0.7,0.1,1.4-0.1,2.1-0.2c1-0.1,4.1-0.9,3.2,0.2c-0.8,1.1-2.5,1.1-3.1,2.6
			c-0.5,1.2-0.6,2.6,0.4,3.6c2.2,2.3,9.2,0.4,11.4-0.5c4.3-1.8,2.6-7.5,1.6-11.1c-0.2,0.6-0.5,1.1-0.7,1.7c8-3.7,15.2-8.7,22.6-13.4
			c3.8-2.4,7.7-4.9,11.9-6.7c4-1.8,8.3,0.4,12.5-0.6c3.8-0.9,9.9-4.7,7.1-9.4c-1-1.7-2.7-2.2-4.5-2c-1.2,0.1-2.2,0.7-3.3,1.2
			c-1.6,1.5-3.1,1.4-4.4-0.3c0.7-0.8,1.4-1.6,2.1-2.4c0.6-0.7,0.6-1.8-0.3-2.4c-3.4-1.9-9.2-1.8-12.3,0.9c-2.7,2.4-1.1,5.5,0.8,7.8
			c0.2-0.8,0.4-1.7,0.7-2.5C45.6,40,35.7,47.6,26.5,54c-2.4,1.7-4.8,3.8-7.3,5.3c-2.2,1.4-3.9,0.9-6.4,1.3c-3.1,0.4-5.5,2.1-6.3,5.2
			C6,67.6,8.9,68.4,9.4,66.6L9.4,66.6z"/>
	</g>
</g>
</svg>
