<?xml version="1.0" encoding="utf-8"?>
<!-- Generator: Adobe Illustrator 22.0.0, SVG Export Plug-In . SVG Version: 6.00 Build 0)  -->
<svg version="1.1" id="Слой_1" xmlns="http://www.w3.org/2000/svg" xmlns:xlink="http://www.w3.org/1999/xlink" x="0px" y="0px"
	 viewBox="0 0 100 100" style="enable-background:new 0 0 100 100;" xml:space="preserve">
<g>
	<g>
		<path d="M39,32.4c-4-5.5-12.9-2.4-17.5,1.1c-6.1,4.7-0.6,10.3,5.1,12.2c5,1.7,17.5,3.4,18.9-4.1c1.1-6-8.2-11.8-13.3-9.8
			c-1.8,0.7-1,3.6,0.8,2.9c2.4-0.9,5.3,0.5,6.9,2.3c2.3,1.7,1.4,4-2.7,6.9c-0.6,0-1.2,0-1.8,0c-2.9,0.4-7.3-0.4-9.9-1.8
			c-1-0.5-3.5-2.2-3.7-3.4c-0.4-2.1,1.7-3.1,3.1-3.9c2.6-1.5,9.1-4,11.4-0.9C37.6,35.4,40.2,33.9,39,32.4L39,32.4z"/>
	</g>
</g>
<g>
	<g>
		<path d="M31,37.9C31,37.9,30.9,37.9,31,37.9c0.1-0.1,0.3-0.3,0.5-0.5c0,0,0,0-0.1,0c0.3-0.1,0.5-0.1,0.8-0.2
			c0.3,0.2,0.6,0.4,0.9,0.5c0.1,0.3,0.1,0.5,0.2,0.8c-0.9,0.7-1,1-0.6,0.9c0.8-0.1,1.2-1.1,1-1.8c-0.2-0.8-1-1.2-1.8-1
			c-1.2,0.2-2.1,1.6-1.4,2.8c0.7,1.1,2.4,1.2,3,0c0.4-0.7,0.2-1.6-0.5-2.1C32.3,36.9,31.4,37.2,31,37.9L31,37.9z"/>
	</g>
</g>
<g>
	<g>
		<path d="M55.5,31.6c-2.8-1.6-6.2-1.5-8.3,1.3c-1.1,1.5-0.7,2.9-1.1,4.5c-0.2,1.2-1.1,2.2-0.9,3.4c0.4,3.6,6.7,4.5,9.3,5
			c4,0.7,9.4,1.4,12.9-1.1c2.7-1.8,3.7-5.7,3-8.8c-0.9-3.6-5-4.1-8.1-5c-4-1.3-8.5-2.7-12.5-0.5c-3.4,1.8-5.1,5.2-5.2,8.9
			c-0.1,1.9,2.9,1.9,3,0c0.3-6.9,6.4-7.7,11.7-6.2c4.1,1.1,10,2.1,7.2,7.4c-1.5,2.9-3.5,2.9-6.6,2.9c-2.1,0-4.2-0.3-6.2-0.8
			c-1.8-0.4-4.5-1.1-4.9-3.3c-0.4-2.2,3.4-6.2,5.2-5.2C55.6,35.1,57.1,32.5,55.5,31.6L55.5,31.6z"/>
	</g>
</g>
<g>
	<g>
		<path d="M57.4,37.1c-0.5-0.1-0.9-0.1-1.4-0.2c-0.8-0.1-1.7,0.2-1.8,1c-0.2,0.7,0.2,1.7,1,1.8c0.5,0.1,0.9,0.1,1.4,0.2
			c0.8,0.1,1.7-0.2,1.8-1C58.6,38.2,58.3,37.2,57.4,37.1L57.4,37.1z"/>
	</g>
</g>
<g>
	<g>
		<path d="M15.7,47.7c-1.1-7.4-0.5-14.7,2-21.8c0.9-2.7,2-5.3,2.7-8c0.7-2.9,1-6.1,3.9-7.8c-0.7-0.2-1.4-0.4-2.1-0.5
			c2.7,4.7,7,12.5,12.8,13.6c3.7,0.7,8.1-0.7,11.9-1c5-0.4,10-0.5,15.1-0.4c0.8,0,1.6-0.7,1.5-1.5C63,15.4,64.1,11,67.2,7
			c-0.8-0.2-1.7-0.4-2.5-0.7c1.5,5.7,3.9,10.9,7.2,15.8c1.6,2.3,3.5,4.7,4.3,7.5c1.1,3.9-0.5,7.6-2.2,11.1c-1.7,3.5-4.9,8-4,12.1
			c1.1,5.3,13.3,11.8,2.6,16.5c-1.8,0.8-0.2,3.4,1.5,2.6c4.3-1.9,6.3-6.4,5-11c-0.8-2.9-2.8-4-4.4-6.3c-3.5-4.9,0.6-9.5,2.6-13.9
			c2.2-4.8,3.2-9.5,0.9-14.4c-1.4-3-3.6-5.6-5.4-8.5c-2.4-3.9-4-8-5.1-12.4c-0.3-1-1.8-1.6-2.5-0.7c-3.6,4.6-5.2,9.6-4.6,15.4
			c0.5-0.5,1-1,1.5-1.5c-7.2-0.2-14.4,0.2-21.6,1.1c-3.9,0.5-6.7-0.1-9.4-3.1c-2.4-2.7-4.4-5.7-6.2-8.8c-0.4-0.7-1.4-1-2.1-0.5
			c-5.2,3.1-5.4,10.8-7.4,16c-3,8.2-3.9,16.4-2.6,25C13.1,50.4,16,49.6,15.7,47.7L15.7,47.7z"/>
	</g>
</g>
<g>
	<g>
		<path d="M13.5,47.7c0,5.1,0.1,10.2,0.3,15.3c0.2,3.3,0.6,6.5,2.8,9.2c5.3,6.5,14.3,5.4,21.6,4.4c5.8-0.8,11.6-1.1,17.4-0.8
			c4.9,0.3,9.9,1,14.8,0.6c6-0.5,12.8-3.5,13.1-10.3c0.1-1.9-2.9-1.9-3,0c-0.3,8.8-13.7,7.6-19.6,7.2c-7.1-0.6-14.2-0.7-21.3,0.2
			c-6.4,0.8-15.5,3-20.5-2.8c-2.8-3.3-2.3-8-2.5-12c-0.1-3.6-0.2-7.3-0.2-10.9C16.5,45.8,13.5,45.8,13.5,47.7L13.5,47.7z"/>
	</g>
</g>
<g>
	<g>
		<path d="M76.7,61.1c3.7,0.1,7.4,0.2,11.1,0.4c1.5,0.1,3.1,0.1,4.6,0.2c0.9,0,1.8,0.1,2.8,0.1c2.1-0.5,2.5,0.1,1.1,2
			c-1,2.4-1.6,2.1-3.9,2.4c-2.2,0.4-4.4,0.6-6.6,0.9c-3.5,0.4-7,0.7-10.5,1c-1.4,0.1-2.1,2-0.8,2.8c0.1,0.1,0.3,0.1,0.4,0.2
			c1.7,1,3.2-1.6,1.5-2.6c-0.1-0.1-0.3-0.1-0.4-0.2c-0.3,0.9-0.5,1.9-0.8,2.8c6-0.4,12-1,17.9-2c3.3-0.5,7.1-1.2,7.9-5
			c0.7-3.4-0.9-5.1-4.1-5.3c-6.8-0.3-13.6-0.4-20.3-0.7C74.7,58,74.7,61,76.7,61.1L76.7,61.1z"/>
	</g>
</g>
<g>
	<g>
		<path d="M51.7,50.2c21-3.3,42.1-5.9,63.3-8c1.9-0.2,1.9-3.2,0-3c-21.4,2.1-42.8,4.8-64.1,8.1C49,47.6,49.9,50.5,51.7,50.2
			L51.7,50.2z"/>
	</g>
</g>
<g>
	<g>
		<path d="M42,48.4c-9.3-0.1-18.7-0.2-28-0.2c-7.3-0.1-16.1-1.5-22.9,1.8c-1.4,0.7-0.6,2.7,0.8,2.8c0.9,0.1,1.9,0.1,2.8,0.2
			c1.9,0.1,1.9-2.9,0-3c-0.9-0.1-1.9-0.1-2.8-0.2c0.3,0.9,0.5,1.9,0.8,2.8c4-1.9,8.4-1.5,12.7-1.4c4.2,0,8.4,0.1,12.6,0.1
			c8,0.1,16.1,0.1,24.1,0.2C43.9,51.4,43.9,48.4,42,48.4L42,48.4z"/>
	</g>
</g>
<g>
	<g>
		<path d="M31.6,51.4C19.5,54.1,7.7,58-3.6,63c-1.8,0.8-0.2,3.4,1.5,2.6c11.1-5,22.6-8.7,34.4-11.3C34.3,53.9,33.5,51,31.6,51.4
			L31.6,51.4z"/>
	</g>
</g>
<g>
	<g>
		<path d="M52,52.7c12.1,0.7,24.2,1.7,36.3,3.1c1.9,0.2,1.9-2.8,0-3c-12.1-1.4-24.2-2.5-36.3-3.1C50.1,49.6,50.1,52.6,52,52.7
			L52,52.7z"/>
	</g>
</g>
<g>
	<g>
		<path d="M25,58.6c8.2,3.5,16.9,3.8,25.7,2.7c3.4-0.4,15.4-0.8,14.9-6.6c-0.1-0.9-0.9-1.8-1.9-1.4c-0.1,0-0.1,0-0.2,0.1
			c-0.8,0.3-1.2,1-1,1.8c0,0.1,0,0.1,0,0.2c0.4,1.9,3.3,1.1,2.9-0.8c0-0.1,0-0.1,0-0.2c-0.3,0.6-0.7,1.2-1,1.8c0.1,0,0.1,0,0.2-0.1
			c-0.6-0.5-1.3-1-1.9-1.4c0.2,2-7.5,3-8.8,3.2c-3.1,0.5-6.2,0.9-9.3,1c-6.2,0.3-12.3-0.4-18-2.9C24.7,55.2,23.2,57.8,25,58.6
			L25,58.6z"/>
	</g>
</g>
<g>
	<g>
		<path d="M42.7,25.5c0.9,0,1.8,0,2.6,0c-0.5-0.5-1-1-1.5-1.5c0.1,0.8,0.4,1.5,1.2,2c0.7,0.4,1.6,0.4,2.3-0.1
			c1.6-1.1,0.1-3.7-1.5-2.6c0.5-0.2,0.9,0.1,1,0.7c-0.1-0.8-0.6-1.5-1.5-1.5c-0.9,0-1.8,0-2.6,0C40.7,22.5,40.7,25.5,42.7,25.5
			L42.7,25.5z"/>
	</g>
</g>
<g>
	<g>
		<path d="M53.3,21.7c-0.9,0.4-1.9,0.8-2.8,1.2c0.5,0.8,1,1.7,1.5,2.5c0.4-0.4,0.8-0.6,1.3-0.7c-0.4-0.9-0.8-1.8-1.2-2.7
			c-0.6,0.4-1.3,0.6-2.1,0.7c-0.8,0.1-1.5,0.6-1.5,1.5c0,0.8,0.7,1.6,1.5,1.5c1.3-0.1,2.5-0.4,3.6-1.1c1.4-0.8,0.5-3.3-1.2-2.7
			c-1,0.3-1.8,0.8-2.6,1.5c-1,1,0,3.1,1.5,2.5c0.9-0.4,1.9-0.8,2.8-1.2c0.7-0.3,1.3-1,1-1.8C55,22,54.1,21.3,53.3,21.7L53.3,21.7z"
			/>
	</g>
</g>
<g>
	<g>
		<path d="M48.3,21.9c-2.4-0.1-4.9-0.1-7.3-0.2c-1.9,0-1.9,3,0,3c2.4,0.1,4.9,0.1,7.3,0.2C50.3,25,50.3,22,48.3,21.9L48.3,21.9z"/>
	</g>
</g>
<g>
	<g>
		<path d="M62.5,20.3c0-0.3,0-0.6,0-1c-0.5,0.5-1,1-1.5,1.5c0.2,0,0.3,0,0.5,0.1c1,0.5,2.2-0.1,2.3-1.3c0.1-2.5,0.1-5.1,0.1-7.6
			c0-1.9-3-1.9-3,0c0.1,2.5,0,5.1-0.1,7.6c0.8-0.4,1.5-0.9,2.3-1.3c-0.7-0.3-1.2-0.5-2-0.5c-0.8,0-1.5,0.7-1.5,1.5c0,0.3,0,0.6,0,1
			C59.4,22.3,62.4,22.3,62.5,20.3L62.5,20.3z"/>
	</g>
</g>
<g>
	<g>
		<path d="M33.3,18.9c-1.6,0-7.1-0.3-6-3.1c0.7-1.8-2.2-2.6-2.9-0.8c-0.7,2,0.2,4.1,1.9,5.2c2,1.4,4.7,1.6,7.1,1.7
			C35.3,22,35.3,19,33.3,18.9L33.3,18.9z"/>
	</g>
</g>
<g>
	<g>
		<path d="M30.9,44.2c-0.3,0.1-0.6,0.2-0.9,0.4c-1.4,0.6-1.4,3,0.4,2.9c1.1,0,1.4-0.1,2.5-0.4c-0.5-0.8-1-1.7-1.5-2.5
			c-0.3,0.3-0.6,0.6-0.8,0.9c-0.9,1,0,3.1,1.5,2.5c3.1-1.2,7.1-1.5,10.2-1.6c2.5,0,4.8-0.5,4.5-3.6c-0.2-1.7-2.3-2-2.9-0.4
			c0,0.1-0.1,0.2-0.1,0.3c-0.2,0.5,0,1.1,0.4,1.5c0.6,0.5,1,0.8,1.8,0.7c0.7-0.1,1.2-0.4,1.4-1.1c0.3-0.8,0.2-1.2,0-2.1
			c-0.4-1.6-3-1.3-2.9,0.4c0,0.8,0.1,1.7,0.1,2.5c0,0.9,0.9,1.7,1.9,1.4c1-0.3,1.1-0.3,2-1c-0.8-0.4-1.5-0.9-2.3-1.3
			c0.1,3.5,4.2,5.8,6.1,2c-0.9-0.4-1.8-0.8-2.7-1.2c-0.1,0.4-0.2,0.9-0.2,1.3c-0.2,1.3,1,2.3,2.2,1.7c1.1-0.2,2.1-0.3,3.2-0.5
			c1.9,0.2,1.9-2.8,0-3c-1.8-0.2-3,0.1-4.7,0.9c0.7,0.6,1.5,1.1,2.2,1.7c0.1-0.4,0.2-0.9,0.2-1.3c0.3-1.5-1.9-2.8-2.7-1.2
			c-0.2-0.2-0.3-0.3-0.5-0.5c0-1-1.3-2-2.3-1.3c-0.4,0.2-0.8,0.5-1.3,0.7c0.6,0.5,1.3,1,1.9,1.4c0-0.8-0.1-1.7-0.1-2.5
			c-1,0.1-2,0.3-2.9,0.4c0,0.2,0,0.3,0,0.5c0.5-0.4,1-0.7,1.4-1.1c0.3,0.5,0.6,0.9,0.9,1.4c-1-0.1-2-0.3-2.9-0.4
			c-0.8,0-1.6,0.1-2.3,0.1c-0.5-0.2-1.1,0.1-1.5,0.4c-1.3,1.1-7.1,1.1-8.7,1.7c0.5,0.8,1,1.7,1.5,2.5c0.3-0.3,0.6-0.6,0.8-0.9
			c1-1.1,0-2.9-1.5-2.5c-0.6,0.1-1.2,0.2-1.7,0.3c0.1,1,0.3,2,0.4,2.9c0.3-0.1,0.6-0.2,0.9-0.4C33.5,46.4,32.7,43.5,30.9,44.2
			L30.9,44.2z"/>
	</g>
</g>
<g>
	<g>
		<path d="M20.7,55.6c3.5,1.3,7.1,2.6,10.6,3.9c1.8,0.7,2.6-2.2,0.8-2.9c-3.5-1.3-7.1-2.6-10.6-3.9C19.6,52.1,18.9,55,20.7,55.6
			L20.7,55.6z"/>
	</g>
</g>
<g>
	<g>
		<path d="M17.8,67.8C13.7,70,11,76.7,16,79.1c3.7,1.8,9.4,3,13.6,2.8c5-0.2,6.5-4.5,10.8-6c1.8-0.6,1-3.5-0.8-2.9
			c-4.4,1.5-6.2,5.9-11.4,5.9c-2.5,0-5.5-0.8-7.8-1.6c-1.6-0.5-3.7-0.8-3.9-2.7c-0.2-1.5,1.9-3.8,2.9-4.3
			C21,69.4,19.5,66.9,17.8,67.8L17.8,67.8z"/>
	</g>
</g>
<g>
	<g>
		<path d="M56.8,75.1c-2.8,8.4,8.9,7.4,13.6,6.9c3.3-0.4,7.9-0.1,10.8-2.1c3.3-2.3,1.1-5.7,3.2-8.5c1.2-1.5-1.4-3-2.6-1.5
			c-0.7,0.9-0.9,1.6-1.1,2.7c-0.6,3.2-1,5.3-4.8,5.8c-1.9,0.3-18,3.1-16.1-2.5C60.3,74.1,57.4,73.3,56.8,75.1L56.8,75.1z"/>
	</g>
</g>
</svg>
