<?xml version="1.0" encoding="utf-8"?>
<!-- Generator: Adobe Illustrator 23.0.2, SVG Export Plug-In . SVG Version: 6.00 Build 0)  -->
<svg version="1.1" id="Слой_1" xmlns="http://www.w3.org/2000/svg" xmlns:xlink="http://www.w3.org/1999/xlink" x="0px" y="0px"
	 viewBox="0 0 100 100" style="enable-background:new 0 0 100 100;" xml:space="preserve">
<path d="M95,89.8c0.1-3-9.9-18.7-9.9-25.1c0-5.6,0-11.4,0-15.9c0-15.8-10.2-29.1-24.3-34C60.7,8.4,55.5,3.2,49.1,3.2
	c-6.5,0-11.7,5.2-11.8,11.6C23.1,19.7,13,33.1,13,48.8c0,4.7,0,10.9-0.1,16.8c0,6.1-7.9,21.4-8,24.2h52.1c1.4,4.1,5.3,7,9.8,7
	c4.6,0,8.4-2.9,9.8-7L95,89.8L95,89.8L95,89.8z M49.1,9c2.7,0,5,1.8,5.8,4.2c-1.9-0.3-3.8-0.5-5.7-0.5c-2,0-3.9,0.2-5.8,0.5
	C44.1,10.8,46.3,9,49.1,9z M49.1,21.7c14.9,0,27.1,12.2,27.1,27.1c0,1.9,0,4.1,0,6.5H22c0-2.3,0-4.5,0-6.5
	C22,33.9,34.1,21.7,49.1,21.7z M21.9,65.6c0-1.4,0-2.9,0-4.4h54.2c0,1.1,0,2.3,0,3.4c0,4.5,2,9.7,5.1,16.2H17.8
	C20.3,74.6,21.9,69.7,21.9,65.6z"/>
</svg>
