<?xml version="1.0" encoding="utf-8"?>
<!-- Generator: Adobe Illustrator 23.0.2, SVG Export Plug-In . SVG Version: 6.00 Build 0)  -->
<svg version="1.1" id="Слой_1" xmlns="http://www.w3.org/2000/svg" xmlns:xlink="http://www.w3.org/1999/xlink" x="0px" y="0px"
	 viewBox="0 0 100 100" style="enable-background:new 0 0 100 100;" xml:space="preserve">
<path d="M60.2,86c0,5.6-4.6,10.2-10.2,10.2S39.8,91.7,39.8,86H60.2z"/>
<g>
	<polygon points="86.4,81.2 86.4,81.2 86.4,81.2 86.4,81.2 	"/>
	<path d="M78.4,48c0-12.8-8.2-23.6-19.6-27.5c-0.7-0.2-1.4-0.4-2.1-0.6v-8.2C56.7,8,53.7,5,50,5s-6.7,3-6.7,6.7v7.8
		c-1.2,0.3-2.4,0.6-3.6,1C28.3,24.4,20.1,35.3,20.1,48c0,3.8,0,8.8-0.1,13.6c0,4.9-6.4,17.3-6.4,19.6h72.8c0.1-2.4-8-15.2-8-20.3
		C78.4,56.3,78.4,51.6,78.4,48z"/>
</g>
</svg>
